<svg xmlns="http://www.w3.org/2000/svg" viewBox="0 0 155.4 55.3"><path d="M12.7,12.7a12.7,12.7,0,0,1,.4-3.4,13.6,13.6,0,0,1,1.3-3A12.7,12.7,0,0,1,19,1.7,13.4,13.4,0,0,1,22,.5,12.7,12.7,0,0,1,25.4,0V25.4a12.7,12.7,0,0,1-3.4-.5,10.1,10.1,0,0,1-3-1.3,10,10,0,0,1-2.6-2,12.2,12.2,0,0,1-2-2.5,19.4,19.4,0,0,1-1.3-3A13.2,13.2,0,0,1,12.7,12.7Z" fill="#777bc6"/><path d="M42.7,12.7a12.4,12.4,0,0,1,3.3.4,16.9,16.9,0,0,1,3.1,1.3,12.2,12.2,0,0,1,2.5,2,10,10,0,0,1,2,2.6,10.1,10.1,0,0,1,1.3,3,12.7,12.7,0,0,1,.4,3.4H30a9.7,9.7,0,0,1,.5-3.4,13.4,13.4,0,0,1,1.2-3,12.7,12.7,0,0,1,4.6-4.6,13.6,13.6,0,0,1,3-1.3A12.7,12.7,0,0,1,42.7,12.7Z" fill="#3073b7"/><path d="M42.7,42.7a12.6,12.6,0,0,1-.5,3.3,12,12,0,0,1-1.3,3.1A11.8,11.8,0,0,1,39,51.6a12.1,12.1,0,0,1-2.6,2,11.4,11.4,0,0,1-3,1.3,12.7,12.7,0,0,1-3.4.4V30a9.7,9.7,0,0,1,3.4.5,15.7,15.7,0,0,1,3,1.2,16.4,16.4,0,0,1,2.6,2,12.4,12.4,0,0,1,1.9,2.6,10.1,10.1,0,0,1,1.3,3A12.7,12.7,0,0,1,42.7,42.7Z" fill="#777bc6"/><path d="M12.7,42.7a12.7,12.7,0,0,1-3.4-.5,10.1,10.1,0,0,1-3-1.3A12.4,12.4,0,0,1,3.7,39a16.4,16.4,0,0,1-2-2.6,15.7,15.7,0,0,1-1.2-3A12.7,12.7,0,0,1,0,30H25.4a12.7,12.7,0,0,1-.5,3.4,11.4,11.4,0,0,1-1.3,3,12.1,12.1,0,0,1-2,2.6,11.8,11.8,0,0,1-2.5,1.9,13,13,0,0,1-3,1.3A13.3,13.3,0,0,1,12.7,42.7Z" fill="#3073b7"/><rect x="25.6" y="25.6" width="4.2" height="4.23" fill="#777bc6"/><path d="M141.1,16.8l.5-3.6h-2.2l-.5,3.6h-3.4L134,27.6h-2.2l-.3,1.8h2.2l-1.8,12h-2.2l-.2,1.8h4.4l2-13.8h4.4l-1.7,12h-2.2l-.3,1.8h4.4l3.9-26.4Zm-4.9,10.8,1.3-9h4.4l-1.3,9Z" fill="#777bc6"/><polygon points="137.5 25.8 139.8 25.8 140.5 20.4 138.3 20.4 137.5 25.8" fill="#777bc6"/><polygon points="139 31.2 136.7 31.2 136 36.6 138.2 36.6 139 31.2" fill="#777bc6"/><polygon points="151.6 16.8 152.1 13.2 149.9 13.2 149.4 16.8 145.1 16.8 144.9 18.6 155.2 18.6 155.4 16.8 151.6 16.8" fill="#777bc6"/><polygon points="145.9 21.3 142.7 43.2 144.9 43.2 147.9 23.1 151.2 23.1 148.2 43.2 152.6 43.2 152.9 41.4 150.7 41.4 153.7 21.3 145.9 21.3" fill="#777bc6"/><path d="M126.9,24H111.4l.6-3.6h15.4l.8-5.4H110.6L109,25.8h19.9l.5-3.6h-2.2Zm-14.4-7.2h13.3l-.3,1.8H112.2Z" fill="#777bc6"/><polygon points="124.2 27.6 122 27.6 121.7 29.4 106.2 29.4 106 31.2 121.4 31.2 119.9 41.4 115.5 41.4 115.2 43.2 121.9 43.2 123.6 31.2 128.1 31.2 128.3 29.4 123.9 29.4 124.2 27.6" fill="#777bc6"/><polygon points="111.4 34.8 109.7 36 111 37.3 112.4 38.6 114.2 37.3 112.8 36 111.4 34.8" fill="#777bc6"/><path d="M94,31.2l.5-3.6h8.1l.3-1.8H94.8l1-7.2H104l.2-1.8h-9l2.4-2.7H95.4L93,16.8H85.8l-.3,1.8h5.9l-7.9,9h8.8l-.5,3.6h-10L81.6,33h9.9L90,43.2h2.2L93.7,33h10l.2-1.8Zm-6.7-5.4,6.3-7.2-1,7.2Z" fill="#3073b7"/><polygon points="74.6 41.4 80.4 15 80.8 13.2 63.1 13.2 62.7 15 55.4 43.2 57.6 43.2 64.9 15 78.2 15 72.4 41.4 72 43.2 77.5 43.2 77.8 41.4 74.6 41.4" fill="#3073b7"/><polygon points="75.7 20.8 73.2 20.8 69.1 26 67.1 20.8 64.6 20.8 67.5 28.2 62 35.3 64.4 35.3 68.3 30.3 70.2 35.3 72.7 35.3 69.9 28.2 75.7 20.8" fill="#3073b7"/></svg>