<svg xmlns="http://www.w3.org/2000/svg" xmlns:xlink="http://www.w3.org/1999/xlink" viewBox="0 0 110 60"><style><![CDATA[#eq6_tr {animation: eq6_tr_tr 30000ms linear infinite normal forwards}@keyframes eq6_tr_tr { 0% {transform: translate(30px,30px) rotate(0deg)} 100% {transform: translate(30px,30px) rotate(360deg)}}]]></style><g id="eq6_tr" transform="translate(30,30) rotate(0)"><g transform="translate(-30,-30)"><rect width="2.9" height="2.9" rx="0" ry="0" transform="translate(27.2 28.8)" fill="#777bc6"/><path d="M15.4,43.5v0c6.5,0,11.8-5.3,11.8-11.8v0h-23.6v0c0,6.5,5.3,11.8,11.8,11.8Z" fill="#3073b7"/><path d="M15.4,17v0c0,6.5,5.3,11.8,11.8,11.8v0-23.5v0c-6.5,0-11.8,5.2-11.8,11.7Z" fill="#777bc6"/><path d="M41.9,17v0c-6.5,0-11.8,5.3-11.8,11.8v0h23.5v0c0-6.5-5.2-11.8-11.7-11.8Z" fill="#3073b7"/><path d="M41.9,43.5v0c0-6.5-5.3-11.8-11.8-11.8v0v23.5v0c6.5.1,11.8-5.2,11.8-11.7Z" fill="#777bc6"/></g></g><g><polygon points="106.9,22.2 107.3,20.5 93.9,20.5 97,15.6 94.2,15.6 91.1,20.5 84.7,20.5 84.4,22.2 90,22.2 83.4,32.2 84.4,32.2 84.4,32.2 92,32.2 90.9,37 79.5,37 79.1,38.7 90.5,38.7 88.9,45.8 91.7,45.8 93.3,38.7 104.8,38.7 105.2,37 93.7,37 94.8,32.2 102.3,32.2 102.7,30.5 95.2,30.5 96.5,24.3 93.7,24.3 92.4,30.5 87.3,30.5 92.8,22.2" fill="#3073b7"/><path d="M76.7,15.6l-.2.8h-13.2l.2-.8h-2.8L54,45.8c.7-.2,1.4-.6,2-1.1.8-.8,1.4-1.8,1.7-2.9L63,18.3h13.2L70.9,41.8c-.3,1.1-.1,2.2.4,2.9.4.6.9,1,1.5,1.1l6.7-30.1h-2.8Z" fill="#3073b7"/><path d="M76.7,35.4L74.6,45c.2-.1.3-.3.5-.4.7-.7,1.3-1.6,1.6-2.6l.8-3.6c.2-1,0-1.9-.4-2.6-.1-.2-.3-.3-.4-.4Z" fill="#777bc6"/><polygon points="73.7,22.7 74,21.1 72.6,21.1 67.3,28.3 65.1,21.1 63.7,21.1 63.3,22.7 65.6,30.5 59.9,38.2 59.5,39.9 60.9,39.9 66.3,32.7 68.4,39.9 69.8,39.9 70.2,38.2 67.9,30.5" fill="#3073b7"/></g></svg>