<svg xmlns="http://www.w3.org/2000/svg" xmlns:xlink="http://www.w3.org/1999/xlink" viewBox="0 0 100 100"><defs><linearGradient id="a" y1="50" x2="100" y2="50" gradientUnits="userSpaceOnUse"><stop offset="0" stop-color="#d4e79d"/><stop offset="1" stop-color="#94c7ae"/></linearGradient></defs><rect width="100" height="100" transform="translate(100) rotate(90)" fill="url(#a)"/><g opacity="0.75"><path d="M50,17.9A32.1,32.1,0,0,0,17.9,50.1,32.1,32.1,0,0,0,50,82.1h0A32.1,32.1,0,0,0,82.1,50a31.8,31.8,0,0,0-9.4-22.7A32.2,32.2,0,0,0,50,17.9Zm0,62.3v-.1h0A30.1,30.1,0,0,1,28.7,28.7,30.4,30.4,0,0,1,50,19.9a30.1,30.1,0,0,1,21.3,8.9A30.1,30.1,0,0,1,50,80.2Z"/><path d="M50,27.1a22.9,22.9,0,0,0-23,23h2a20.8,20.8,0,0,1,6.2-14.9,21,21,0,0,1,29.6,0A20.8,20.8,0,0,1,71,50.1h2a22.9,22.9,0,0,0-23-23Z"/><path d="M48.8,50.3l-6-6.9-1.6,1.3,6.1,7a3.5,3.5,0,0,0-.3,1.4,2.9,2.9,0,0,0,.9,2.1,3.3,3.3,0,0,0,2.1.9,3.1,3.1,0,0,0,2.1-.9,3,3,0,0,0,0-4.3A3.3,3.3,0,0,0,48.8,50.3Zm1.9,3.5a1.2,1.2,0,0,1-1.4,0,1.1,1.1,0,0,1-.3-.7.8.8,0,0,1,.3-.7.9.9,0,0,1,.7-.3l.7.2A1.1,1.1,0,0,1,50.7,53.8Z"/></g></svg>