<svg xmlns="http://www.w3.org/2000/svg" xmlns:xlink="http://www.w3.org/1999/xlink" viewBox="0 0 100 100"><defs><linearGradient id="a" y1="50" x2="100" y2="50" gradientUnits="userSpaceOnUse"><stop offset="0" stop-color="#4cbf8e"/><stop offset="1" stop-color="#ffba36"/></linearGradient></defs><rect width="100" height="100" transform="translate(100) rotate(90)" fill="url(#a)"/><g opacity="0.7"><path d="M69.8,32.3a28,28,0,1,1-39.6,0A28.1,28.1,0,0,1,69.8,32.3Z" fill="none" stroke="#000" stroke-miterlimit="10" stroke-width="2"/><polyline points="50 24.1 50 18.1 56 18.1" fill="none" stroke="#000" stroke-miterlimit="10" stroke-width="2"/><line x1="44" y1="18.1" x2="50" y2="18.1" fill="none" stroke="#000" stroke-miterlimit="10" stroke-width="2"/><line x1="50" y1="80.1" x2="50" y2="76.1" fill="none" stroke="#000" stroke-miterlimit="10" stroke-width="2"/><line x1="50" y1="28.1" x2="50" y2="24.1" fill="none" stroke="#000" stroke-miterlimit="10" stroke-width="2"/><line x1="22" y1="52.1" x2="26" y2="52.1" fill="none" stroke="#000" stroke-miterlimit="10" stroke-width="2"/><line x1="74" y1="52.1" x2="78" y2="52.1" fill="none" stroke="#000" stroke-miterlimit="10" stroke-width="2"/><line x1="32.6" y1="34.7" x2="35.4" y2="37.5" fill="none" stroke="#000" stroke-miterlimit="10" stroke-width="2"/><line x1="64.6" y1="66.7" x2="67.4" y2="69.6" fill="none" stroke="#000" stroke-miterlimit="10" stroke-width="2"/><line x1="67.4" y1="34.7" x2="64.6" y2="37.5" fill="none" stroke="#000" stroke-miterlimit="10" stroke-width="2"/><line x1="35.4" y1="66.7" x2="32.6" y2="69.6" fill="none" stroke="#000" stroke-miterlimit="10" stroke-width="2"/><line x1="50" y1="38.1" x2="50" y2="50.1" fill="none" stroke="#000" stroke-miterlimit="10" stroke-width="2"/><circle cx="50" cy="52.1" r="3" fill="none" stroke="#000" stroke-miterlimit="10" stroke-width="2"/></g></svg>